<svg width="625" height="666" viewBox="0 0 625 666" fill="none" xmlns="http://www.w3.org/2000/svg">
<path d="M344.097 495.251C343.567 495.251 343.058 495.034 342.682 494.649C342.307 494.263 342.096 493.74 342.096 493.195V371.902C342.096 371.357 342.307 370.834 342.682 370.448C343.058 370.063 343.567 369.846 344.097 369.846C344.628 369.846 345.137 370.063 345.513 370.448C345.888 370.834 346.099 371.357 346.099 371.902V493.195C346.099 493.74 345.888 494.263 345.513 494.649C345.137 495.034 344.628 495.251 344.097 495.251Z" fill="url(#paint0_linear_1_172)"/>
<path d="M336.092 646.353C335.561 646.353 335.052 646.136 334.677 645.751C334.301 645.365 334.091 644.842 334.091 644.297V555.897C334.091 555.352 334.301 554.829 334.677 554.444C335.052 554.058 335.561 553.841 336.092 553.841C336.623 553.841 337.132 554.058 337.507 554.444C337.882 554.829 338.093 555.352 338.093 555.897V644.297C338.093 644.842 337.882 645.365 337.507 645.751C337.132 646.136 336.623 646.353 336.092 646.353Z" fill="url(#paint1_linear_1_172)"/>
<path d="M376.12 593.93C375.589 593.93 375.08 593.713 374.705 593.328C374.329 592.942 374.118 592.419 374.118 591.874V532.255C374.118 531.71 374.329 531.187 374.705 530.802C375.08 530.416 375.589 530.199 376.12 530.199C376.651 530.199 377.16 530.416 377.535 530.802C377.91 531.187 378.121 531.71 378.121 532.255V591.874C378.121 592.419 377.91 592.942 377.535 593.328C377.16 593.713 376.651 593.93 376.12 593.93Z" fill="url(#paint2_linear_1_172)"/>
<path d="M380.123 439.744C379.592 439.744 379.083 439.527 378.707 439.142C378.332 438.756 378.121 438.233 378.121 437.688V388.348C378.121 387.803 378.332 387.28 378.707 386.895C379.083 386.509 379.592 386.293 380.123 386.293C380.653 386.293 381.162 386.509 381.538 386.895C381.913 387.28 382.124 387.803 382.124 388.348V437.688C382.124 438.233 381.913 438.756 381.538 439.142C381.162 439.527 380.653 439.744 380.123 439.744Z" fill="url(#paint3_linear_1_172)"/>
<path d="M206.001 434.604C205.471 434.604 204.962 434.388 204.586 434.002C204.211 433.616 204 433.094 204 432.548V383.209C204 382.664 204.211 382.141 204.586 381.755C204.961 381.37 205.471 381.153 206.001 381.153C206.532 381.153 207.041 381.37 207.417 381.755C207.792 382.141 208.003 382.664 208.003 383.209V432.548C208.003 433.094 207.792 433.616 207.417 434.002C207.041 434.388 206.532 434.604 206.001 434.604V434.604Z" fill="url(#paint4_linear_1_172)"/>
<path d="M306.071 413.018C305.54 413.018 305.031 412.801 304.656 412.416C304.281 412.03 304.07 411.508 304.07 410.962V361.623C304.07 361.078 304.28 360.555 304.656 360.169C305.031 359.784 305.54 359.567 306.071 359.567C306.602 359.567 307.111 359.784 307.486 360.169C307.862 360.555 308.072 361.078 308.072 361.623V410.962C308.072 411.508 307.862 412.03 307.486 412.416C307.111 412.801 306.602 413.018 306.071 413.018V413.018Z" fill="url(#paint5_linear_1_172)"/>
<path d="M247.03 542.534C246.499 542.534 245.99 542.318 245.615 541.932C245.239 541.547 245.029 541.024 245.029 540.479V419.186C245.029 418.64 245.239 418.117 245.615 417.732C245.99 417.346 246.499 417.13 247.03 417.13C247.561 417.13 248.07 417.346 248.445 417.732C248.82 418.117 249.031 418.64 249.031 419.186V540.479C249.031 541.024 248.82 541.547 248.445 541.932C248.07 542.318 247.561 542.534 247.03 542.534Z" fill="url(#paint6_linear_1_172)"/>
<path d="M265.042 665.883C264.512 665.883 264.003 665.667 263.627 665.281C263.252 664.895 263.041 664.373 263.041 663.827V614.488C263.041 613.943 263.252 613.42 263.627 613.034C264.003 612.649 264.512 612.432 265.042 612.432C265.573 612.432 266.082 612.649 266.458 613.034C266.833 613.42 267.044 613.943 267.044 614.488V663.827C267.044 664.373 266.833 664.895 266.458 665.281C266.082 665.667 265.573 665.883 265.042 665.883V665.883Z" fill="url(#paint7_linear_1_172)"/>
<path d="M217.009 651.492C216.478 651.492 215.969 651.276 215.594 650.89C215.219 650.505 215.008 649.982 215.008 649.437V561.037C215.008 560.492 215.218 559.969 215.594 559.583C215.969 559.197 216.478 558.981 217.009 558.981C217.54 558.981 218.049 559.197 218.424 559.583C218.8 559.969 219.01 560.492 219.01 561.037V649.437C219.01 649.982 218.8 650.505 218.424 650.89C218.049 651.276 217.54 651.492 217.009 651.492V651.492Z" fill="url(#paint8_linear_1_172)"/>
<path d="M294.063 578.511C293.532 578.511 293.023 578.294 292.647 577.909C292.272 577.523 292.061 577 292.061 576.455V455.162C292.061 454.617 292.272 454.094 292.647 453.709C293.023 453.323 293.532 453.107 294.063 453.107C294.593 453.107 295.102 453.323 295.478 453.709C295.853 454.094 296.064 454.617 296.064 455.162V576.455C296.064 577 295.853 577.523 295.478 577.909C295.102 578.294 294.593 578.511 294.063 578.511Z" fill="url(#paint9_linear_1_172)"/>
<g clip-path="url(#clip0_1_172)">
<path d="M360.413 467.424L275.692 441.26C268.04 438.897 259.527 442.129 256.679 448.478L227.708 513.058C224.86 519.407 228.754 526.47 236.406 528.833L321.127 554.997C328.779 557.36 337.292 554.129 340.14 547.779L369.111 483.199C371.959 476.85 368.065 469.787 360.413 467.424Z" fill="#FF9200"/>
<path d="M360.374 496.729L253.46 463.712L252.606 465.616L359.52 498.633L360.374 496.729Z" fill="#595959"/>
<path d="M356.103 506.248L249.19 473.231L248.336 475.135L355.249 508.151L356.103 506.248Z" fill="#595959"/>
<path d="M261.332 460.724C262.599 461.115 264.009 460.58 264.48 459.529C264.952 458.477 264.307 457.308 263.04 456.917C261.773 456.525 260.363 457.06 259.891 458.112C259.42 459.163 260.065 460.333 261.332 460.724Z" fill="#7D7D7D"/>
<path d="M359.996 491.194C361.263 491.585 362.673 491.05 363.145 489.998C363.616 488.947 362.971 487.777 361.704 487.386C360.437 486.995 359.027 487.53 358.556 488.581C358.084 489.633 358.729 490.802 359.996 491.194Z" fill="#7D7D7D"/>
<path d="M251.51 482.617C252.778 483.009 254.187 482.474 254.659 481.422C255.131 480.371 254.486 479.201 253.218 478.81C251.951 478.418 250.542 478.954 250.07 480.005C249.598 481.056 250.243 482.226 251.51 482.617Z" fill="#7D7D7D"/>
<path d="M269.953 493.68L268.332 491.62C265.843 488.458 260.533 487.85 256.471 490.262L224.595 509.193C220.533 511.605 219.257 516.125 221.746 519.287L223.367 521.347C225.856 524.51 231.166 525.118 235.228 522.705L267.104 503.775C271.166 501.362 272.442 496.843 269.953 493.68Z" fill="#DEDEDE"/>
<path d="M224.166 519.139C226.45 522.041 230.959 522.815 234.239 520.868C237.518 518.92 238.325 514.989 236.041 512.087C233.757 509.184 229.247 508.411 225.968 510.358C222.689 512.305 221.882 516.237 224.166 519.139Z" fill="url(#paint10_radial_1_172)"/>
<path d="M308.404 551.307L249.797 533.262L231.855 573.139C229.953 577.366 232.554 582.069 237.663 583.642L241.567 584.844C246.677 586.417 252.362 584.266 254.264 580.038L262.315 562.145C263.644 559.191 267.615 557.689 271.185 558.788C274.755 559.887 276.572 563.172 275.243 566.125L267.192 584.019C265.29 588.247 267.89 592.949 273 594.522L277.766 595.989C282.876 597.563 288.56 595.412 290.462 591.184L308.404 551.307Z" fill="#DEDEDE"/>
<path d="M334.737 493.695L273.866 474.897L246.964 534.865L307.835 553.663L334.737 493.695Z" fill="#DEDEDE"/>
<path d="M311.658 544.007L251.736 525.501L247.809 534.256L307.731 552.761L311.658 544.007Z" fill="url(#paint11_linear_1_172)"/>
<path d="M284.736 478.254L279 476.482L252.098 536.451L257.834 538.222L284.736 478.254Z" fill="url(#paint12_linear_1_172)"/>
<path d="M328.333 491.717L322.597 489.946L295.694 549.914L301.431 551.686L328.333 491.717Z" fill="url(#paint13_linear_1_172)"/>
<path d="M308.689 551.76L249.078 533.351L248.224 535.254L307.835 553.663L308.689 551.76Z" fill="#7F7F7F"/>
<path d="M356.79 473.412L356.79 473.412C354.573 472.727 352.106 473.663 351.28 475.503L347.437 484.07C346.612 485.91 347.74 487.957 349.958 488.642C352.176 489.327 354.643 488.39 355.468 486.55L359.311 477.983C360.137 476.143 359.008 474.096 356.79 473.412Z" fill="#DEDEDE"/>
<path d="M276.708 452.474C277.534 450.634 276.405 448.587 274.187 447.902C271.97 447.217 269.503 448.154 268.677 449.994L264.834 458.56C264.009 460.401 265.137 462.447 267.355 463.132C269.573 463.817 272.04 462.881 272.865 461.041L276.708 452.474Z" fill="#DEDEDE"/>
<path d="M352.904 480.332C344.45 499.137 319.186 508.707 296.474 501.708C273.762 494.708 262.203 473.79 270.657 454.985C279.111 436.181 304.375 426.61 327.087 433.61C349.799 440.609 361.357 461.527 352.904 480.332Z" fill="#DEDEDE" stroke="#7D7D7D" stroke-width="0.5"/>
<path fill-rule="evenodd" clip-rule="evenodd" d="M352.778 481.68C343.425 499.595 318.808 508.478 296.603 501.578C274.399 494.678 262.73 474.52 269.684 455.86C269.357 456.486 269.049 457.122 268.761 457.77C260.207 476.955 271.902 498.296 294.883 505.438C317.863 512.578 343.426 502.815 351.98 483.629C352.268 482.982 352.535 482.332 352.778 481.68Z" fill="#DDDDDD"/>
<path fill-rule="evenodd" clip-rule="evenodd" d="M350.848 485.93C341.496 503.52 316.88 512.24 294.675 505.467C272.47 498.692 260.801 478.9 267.755 460.579C267.428 461.194 267.12 461.819 266.831 462.455C258.278 481.291 269.973 502.245 292.954 509.255C315.934 516.267 341.498 506.68 350.052 487.844C350.34 487.208 350.606 486.57 350.848 485.93Z" fill="#DEDEDE"/>
<path d="M353.74 468.132C343.553 455.783 305.36 442.957 283.185 442.645C270.192 455.456 265.991 471.799 277.482 485.888C283.862 493.711 290.567 496.83 301.424 499.755C309.456 501.918 314.659 502.815 322.954 501.495C342.43 498.397 353.914 477.943 353.74 468.132Z" fill="#2C2727"/>
<path d="M311.737 509.198L310.513 509.191C310.175 509.189 309.899 509.415 309.897 509.695C309.894 509.976 310.166 510.205 310.504 510.207L311.728 510.214C312.066 510.216 312.342 509.99 312.345 509.71C312.347 509.429 312.075 509.2 311.737 509.198Z" fill="#2C2727"/>
<path d="M315.957 508.704L315.956 508.704C315.618 508.702 315.342 508.928 315.34 509.208L315.34 509.208C315.338 509.489 315.61 509.718 315.948 509.72L315.948 509.72C316.286 509.722 316.562 509.496 316.564 509.216L316.564 509.216C316.567 508.935 316.295 508.706 315.957 508.704Z" fill="#2C2727"/>
<path d="M319.485 526.051L321.606 521.383C323.105 517.33 325.327 511.533 329.504 512.541L362.764 500.086C367.477 498.535 372.084 500.731 373.055 504.99L373.687 507.766C374.658 512.025 371.624 516.735 366.911 518.286L329.928 530.455C325.215 532.005 320.456 530.31 319.485 526.051Z" fill="#DEDEDE"/>
<path d="M365.85 502.371C369.802 502.71 372.727 506.115 372.383 509.976C372.039 513.838 368.557 516.692 364.604 516.353C360.652 516.013 357.727 512.608 358.071 508.747C358.415 504.886 361.898 502.031 365.85 502.371Z" fill="#2C2727"/>
<mask id="mask0_1_172" style="mask-type:alpha" maskUnits="userSpaceOnUse" x="271" y="442" width="83" height="61">
<path d="M353.616 468.096C343.479 455.754 305.473 442.933 283.407 442.621C270.478 455.427 266.297 471.762 277.732 485.844C284.081 493.664 290.752 496.781 301.557 499.705C309.549 501.867 314.726 502.763 322.981 501.444C342.361 498.347 353.788 477.903 353.616 468.096Z" fill="black"/>
</mask>
<g mask="url(#mask0_1_172)">
<path d="M323.286 448.195L316.338 439.833L260.495 471.777L267.443 480.139L323.286 448.195Z" fill="#484848"/>
<path d="M336.306 455.651L332.386 450.933L273.516 484.609L277.436 489.327L336.306 455.651Z" fill="#484848"/>
<path d="M287.553 461.784C291.672 463.055 296.253 461.316 297.786 457.899C299.319 454.482 297.223 450.681 293.104 449.409C288.986 448.137 284.404 449.876 282.871 453.293C281.339 456.71 283.435 460.512 287.553 461.784Z" fill="#828282" fill-opacity="0.5"/>
<path d="M298.146 458.552C300.364 459.237 302.831 458.301 303.656 456.461C304.482 454.621 303.353 452.574 301.135 451.889C298.918 451.204 296.451 452.141 295.625 453.981C294.8 455.821 295.928 457.868 298.146 458.552Z" fill="#828282" fill-opacity="0.5"/>
<path d="M282.111 462.27C283.695 462.759 285.457 462.09 286.046 460.776C286.636 459.462 285.83 458 284.246 457.511C282.662 457.021 280.9 457.69 280.31 459.005C279.72 460.319 280.526 461.781 282.111 462.27Z" fill="#828282" fill-opacity="0.5"/>
</g>
</g>
<path d="M467.325 152.551C420.673 144.904 367.546 140.823 312.217 140.823C261.582 140.823 212.798 144.236 169.138 150.67C169.148 149.982 169.158 149.293 169.188 148.604C170.345 108.629 186.679 70.7037 214.699 42.9355C242.719 15.1672 280.202 -0.241462 319.136 0.00286177C358.07 0.247186 395.366 16.1251 423.054 44.243C450.741 72.3608 466.623 110.488 467.305 150.475C467.316 151.174 467.325 151.863 467.325 152.551Z" fill="#2B3945"/>
<path d="M532.551 164.701C511.076 158.721 489.294 153.972 467.305 150.475C431.266 144.739 394.933 141.152 358.49 139.733C343.309 139.096 327.848 138.767 312.217 138.767C299.829 138.767 287.54 138.973 275.422 139.384C239.873 140.463 204.409 143.541 169.188 148.604C143.115 152.292 117.296 157.668 91.8838 164.701C32.6325 181.528 0 204.08 0 228.195C0 252.31 32.6326 274.862 91.8838 291.689C133.553 303.53 184.929 311.599 240.908 315.3C264.014 316.842 287.901 317.623 312.217 317.623C336.614 317.623 360.581 316.832 383.757 315.29C434.702 311.908 481.835 304.908 521.283 294.732C521.493 294.67 521.693 294.618 521.903 294.567C524.565 293.889 527.187 293.179 529.779 292.47C530.709 292.203 531.63 291.946 532.551 291.689C532.603 291.667 532.656 291.65 532.711 291.638C533.592 291.391 534.462 291.134 535.333 290.887C537.074 290.373 538.795 289.87 540.486 289.345C540.566 289.325 540.636 289.304 540.707 289.284C542.177 288.831 543.619 288.379 545.049 287.927C546.22 287.546 547.381 287.176 548.532 286.796C549.373 286.519 550.203 286.241 551.024 285.963C551.624 285.758 552.215 285.563 552.795 285.357C553.586 285.09 554.376 284.812 555.157 284.535C555.487 284.422 555.817 284.309 556.137 284.185C556.888 283.928 557.618 283.661 558.349 283.394C559.139 283.106 559.93 282.808 560.71 282.52C561.361 282.284 562.011 282.037 562.651 281.79C563.192 281.574 563.723 281.369 564.263 281.163C565.734 280.598 567.175 280.012 568.596 279.436C569.307 279.138 570.017 278.85 570.717 278.552C571.408 278.264 572.108 277.966 572.789 277.668C573.909 277.185 575.01 276.702 576.091 276.219C576.611 275.972 577.142 275.736 577.652 275.51C578.043 275.325 578.423 275.15 578.813 274.965C579.093 274.842 579.374 274.708 579.644 274.574C580.654 274.101 581.655 273.618 582.636 273.135C586.398 271.285 589.911 269.394 593.173 267.461C613.637 255.424 624.435 242.072 624.435 228.195C624.435 204.08 591.802 181.528 532.551 164.701ZM532.011 289.715C490.292 301.567 438.776 309.636 382.646 313.306C359.82 314.796 336.224 315.567 312.217 315.567C288.291 315.567 264.774 314.807 242.019 313.316C185.799 309.657 134.203 301.588 92.4242 289.715C34.1136 273.145 2.00139 251.302 2.00139 228.195C2.00465 226.153 2.25345 224.12 2.74214 222.141C7.84531 201.295 39.2373 181.785 92.4242 166.675C117.644 159.697 143.266 154.351 169.138 150.67C204.571 145.578 240.249 142.49 276.012 141.419C287.941 141.018 300.009 140.82 312.217 140.823C327.638 140.823 342.889 141.142 357.879 141.758C394.535 143.164 431.079 146.768 467.325 152.551C489.124 156.033 510.718 160.748 532.011 166.675C585.188 181.785 616.569 201.285 621.683 222.12C622.179 224.105 622.432 226.146 622.433 228.195C622.433 251.302 590.321 273.145 532.011 289.715V289.715Z" fill="#2B3945"/>
<ellipse cx="460" cy="256.067" rx="35" ry="9.5" fill="#FF9200"/>
<path d="M568 206.067C568 211.314 552.33 215.567 533 215.567C513.67 215.567 498 211.314 498 206.067C498 200.82 513.67 196.567 533 196.567C552.33 196.567 568 200.82 568 206.067Z" fill="#FF9200"/>
<ellipse cx="311" cy="277.067" rx="35" ry="9.5" fill="#FF9200"/>
<ellipse cx="162" cy="255.067" rx="35" ry="9.5" fill="#FF9200"/>
<ellipse cx="87" cy="208.067" rx="35" ry="9.5" fill="#FF9200"/>
<path d="M623.864 229.131C623.864 242.863 612.847 255.856 593.173 267.461C589.901 269.394 586.378 271.285 582.636 273.135C581.655 273.618 580.654 274.101 579.644 274.574C579.374 274.708 579.093 274.842 578.813 274.965C578.423 275.15 578.043 275.325 577.652 275.51C577.142 275.736 576.611 275.972 576.091 276.219C575.01 276.702 573.909 277.185 572.789 277.668C572.108 277.966 571.408 278.264 570.717 278.552C570.017 278.85 569.306 279.138 568.596 279.436C567.175 280.012 565.734 280.598 564.263 281.163C563.723 281.369 563.192 281.574 562.651 281.79C562.011 282.037 561.361 282.284 560.71 282.52C559.93 282.808 559.139 283.106 558.349 283.394C557.618 283.661 556.888 283.928 556.137 284.185C555.817 284.309 555.487 284.422 555.156 284.535C554.376 284.812 553.586 285.09 552.795 285.357C552.214 285.563 551.624 285.758 551.024 285.963C550.203 286.241 549.372 286.518 548.532 286.796C547.381 287.176 546.22 287.546 545.049 287.927C543.619 288.379 542.177 288.831 540.706 289.284C540.636 289.304 540.566 289.325 540.486 289.345C538.795 289.869 537.074 290.373 535.333 290.887C534.462 291.134 533.592 291.391 532.711 291.637C532.656 291.65 532.603 291.667 532.551 291.689C531.63 291.946 530.709 292.203 529.779 292.47C527.197 293.169 524.565 293.878 521.903 294.567C521.693 294.618 521.493 294.67 521.283 294.731C482.906 304.579 435.823 311.754 383.717 315.218C360.891 316.729 337.095 317.53 312.648 317.53C287.981 317.53 263.984 316.718 240.978 315.177C103.642 305.977 1.43112 270.946 1.43112 229.13C1.44193 226.586 1.8195 224.057 2.55153 221.627C2.61163 221.801 2.67172 221.966 2.74209 222.141C17.0216 260.667 118.363 291.802 249.854 299.398C269.998 300.57 290.863 301.176 312.217 301.176C333.662 301.176 354.607 300.56 374.831 299.388C506.212 291.761 607.453 260.615 621.683 222.12C621.923 221.503 622.133 220.887 622.313 220.27C623.328 223.108 623.853 226.107 623.864 229.131V229.131Z" fill="#2B3945"/>
<defs>
<linearGradient id="paint0_linear_1_172" x1="344.097" y1="369.846" x2="344.097" y2="495.251" gradientUnits="userSpaceOnUse">
<stop offset="0.427083" stop-color="#D2D2CC"/>
<stop offset="1" stop-color="#F4DD0B" stop-opacity="0.38"/>
</linearGradient>
<linearGradient id="paint1_linear_1_172" x1="336.092" y1="553.841" x2="336.092" y2="646.353" gradientUnits="userSpaceOnUse">
<stop offset="0.427083" stop-color="#D2D2CC"/>
<stop offset="1" stop-color="#F4DD0B" stop-opacity="0.38"/>
</linearGradient>
<linearGradient id="paint2_linear_1_172" x1="376.12" y1="530.199" x2="376.12" y2="593.93" gradientUnits="userSpaceOnUse">
<stop offset="0.427083" stop-color="#D2D2CC"/>
<stop offset="1" stop-color="#F4DD0B" stop-opacity="0.38"/>
</linearGradient>
<linearGradient id="paint3_linear_1_172" x1="380.123" y1="386.293" x2="380.123" y2="439.744" gradientUnits="userSpaceOnUse">
<stop offset="0.427083" stop-color="#D2D2CC"/>
<stop offset="1" stop-color="#F4DD0B" stop-opacity="0.38"/>
</linearGradient>
<linearGradient id="paint4_linear_1_172" x1="206.001" y1="381.153" x2="206.001" y2="434.604" gradientUnits="userSpaceOnUse">
<stop offset="0.427083" stop-color="#D2D2CC"/>
<stop offset="1" stop-color="#F4DD0B" stop-opacity="0.38"/>
</linearGradient>
<linearGradient id="paint5_linear_1_172" x1="306.071" y1="359.567" x2="306.071" y2="413.018" gradientUnits="userSpaceOnUse">
<stop offset="0.427083" stop-color="#D2D2CC"/>
<stop offset="1" stop-color="#F4DD0B" stop-opacity="0.38"/>
</linearGradient>
<linearGradient id="paint6_linear_1_172" x1="247.03" y1="417.13" x2="247.03" y2="542.534" gradientUnits="userSpaceOnUse">
<stop offset="0.427083" stop-color="#D2D2CC"/>
<stop offset="1" stop-color="#F4DD0B" stop-opacity="0.38"/>
</linearGradient>
<linearGradient id="paint7_linear_1_172" x1="265.042" y1="612.432" x2="265.042" y2="665.883" gradientUnits="userSpaceOnUse">
<stop offset="0.427083" stop-color="#D2D2CC"/>
<stop offset="1" stop-color="#F4DD0B" stop-opacity="0.38"/>
</linearGradient>
<linearGradient id="paint8_linear_1_172" x1="217.009" y1="558.981" x2="217.009" y2="651.492" gradientUnits="userSpaceOnUse">
<stop offset="0.427083" stop-color="#D2D2CC"/>
<stop offset="1" stop-color="#F4DD0B" stop-opacity="0.38"/>
</linearGradient>
<linearGradient id="paint9_linear_1_172" x1="294.063" y1="453.107" x2="294.063" y2="578.511" gradientUnits="userSpaceOnUse">
<stop offset="0.427083" stop-color="#D2D2CC"/>
<stop offset="1" stop-color="#F4DD0B" stop-opacity="0.38"/>
</linearGradient>
<radialGradient id="paint10_radial_1_172" cx="0" cy="0" r="1" gradientUnits="userSpaceOnUse" gradientTransform="translate(227.885 526.42) rotate(-103.229) scale(3.74262 4.1982)">
<stop stop-opacity="0.97"/>
<stop offset="0.078125" stop-color="#7F7F7F"/>
<stop offset="0.520833" stop-color="#4C4C4C" stop-opacity="0.988"/>
<stop offset="1"/>
</radialGradient>
<linearGradient id="paint11_linear_1_172" x1="281.697" y1="534.754" x2="278.887" y2="543.853" gradientUnits="userSpaceOnUse">
<stop offset="0.338542" stop-color="#7F7F7F"/>
<stop offset="1" stop-color="#7F7F7F" stop-opacity="0"/>
</linearGradient>
<linearGradient id="paint12_linear_1_172" x1="281.868" y1="477.368" x2="262.619" y2="539.7" gradientUnits="userSpaceOnUse">
<stop offset="0.354167" stop-color="#FF9200"/>
<stop offset="1" stop-color="#232030"/>
</linearGradient>
<linearGradient id="paint13_linear_1_172" x1="325.465" y1="490.831" x2="306.215" y2="553.163" gradientUnits="userSpaceOnUse">
<stop offset="0.557292" stop-color="#EE9C2F"/>
<stop offset="1" stop-color="#232030"/>
</linearGradient>
<clipPath id="clip0_1_172">
<rect width="191" height="202" fill="white" transform="translate(183 403)"/>
</clipPath>
</defs>
</svg>
